<?xml version="1.0" standalone="no"?>
<!DOCTYPE svg PUBLIC "-//W3C//DTD SVG 20010904//EN"
 "http://www.w3.org/TR/2001/REC-SVG-20010904/DTD/svg10.dtd">
<svg version="1.0" xmlns="http://www.w3.org/2000/svg"
 width="500.000000pt" height="500.000000pt" viewBox="0 0 500.000000 500.000000"
 preserveAspectRatio="xMidYMid meet">
<metadata>
Created by potrace 1.11, written by Peter Selinger 2001-2013
</metadata>
<g transform="translate(0.000000,500.000000) scale(0.100000,-0.100000)"
fill="#000000" stroke="none">
<path d="M1200 3920 l0 -641 57 3 c57 3 57 3 61 38 8 73 57 130 135 157 49 17
117 18 1038 19 1055 1 1053 1 1126 -48 39 -28 62 -66 71 -120 l7 -43 58 -3 57
-3 0 641 0 640 -1305 0 -1305 0 0 -640z"/>
<path d="M2367 3378 c-110 -13 -203 -53 -283 -124 -41 -37 -95 -128 -115 -197
-22 -69 -22 -79 -24 -1196 -1 -778 -5 -1136 -13 -1159 -27 -82 -86 -138 -155
-149 -17 -3 -36 -6 -42 -6 -13 -2 -24 -60 -17 -93 l4 -24 760 0 759 0 -3 57
c-3 55 -4 58 -30 60 -71 5 -134 58 -164 138 -18 48 -19 102 -19 1372 l0 1323
-80 1 c-44 0 -177 1 -295 2 -118 1 -245 -1 -283 -5z"/>
</g>
</svg>
